<svg xmlns="http://www.w3.org/2000/svg" xmlns:xlink="http://www.w3.org/1999/xlink" viewBox="0,0,256,256" width="80px" height="80px" fill-rule="nonzero"><g fill="none" fill-rule="nonzero" stroke="none" stroke-width="1" stroke-linecap="butt" stroke-linejoin="miter" stroke-miterlimit="10" stroke-dasharray="" stroke-dashoffset="0" font-family="none" font-weight="none" font-size="none" text-anchor="none" style="mix-blend-mode: normal"><g transform="scale(3.2,3.2)"><path d="M12.5,75.5v-71h37.293l17.707,17.707v53.293z" fill="#ffffff"></path><path d="M49.586,5l17.414,17.414v52.586h-54v-70h36.586M50,4h-38v72h56v-54l-18,-18z" fill="#788b9c"></path><path d="M49.5,22.5v-18h0.293l17.707,17.707v0.293z" fill="#ffffff"></path><path d="M50,5.414l16.586,16.586h-16.586v-16.586M50,4h-1v19h19v-1l-18,-18zM24,32h32v1h-32zM24,38h24v1h-24zM24,44h32v1h-32zM24,50h24v1h-24zM24,56h32v1h-32z" fill="#788b9c"></path></g></g></svg>